<svg xmlns:dc="http://purl.org/dc/elements/1.1/" xmlns:cc="http://creativecommons.org/ns#" xmlns:rdf="http://www.w3.org/1999/02/22-rdf-syntax-ns#" xmlns:svg="http://www.w3.org/2000/svg" xmlns="http://www.w3.org/2000/svg" xmlns:sodipodi="http://sodipodi.sourceforge.net/DTD/sodipodi-0.dtd" xmlns:inkscape="http://www.inkscape.org/namespaces/inkscape" version="1.1" id="Layer_1" x="0px" y="0px" width="322px" height="462px" viewBox="0 0 322 462" enable-background="new 0 0 322 462" xml:space="preserve" inkscape:version="0.48.2 r9819" sodipodi:docname="tabula (1).svg"><metadata id="metadata27"><rdf:RDF><cc:Work rdf:about=""><dc:format>image/svg+xml</dc:format><dc:type rdf:resource="http://purl.org/dc/dcmitype/StillImage"/></cc:Work></rdf:RDF></metadata><defs id="defs25"/><sodipodi:namedview pagecolor="#ffffff" bordercolor="#666666" borderopacity="1" objecttolerance="10" gridtolerance="10" guidetolerance="10" inkscape:pageopacity="0" inkscape:pageshadow="2" inkscape:window-width="1364" inkscape:window-height="778" id="namedview23" showgrid="false" inkscape:zoom="1.4448242" inkscape:cx="40.77704" inkscape:cy="180.73811" inkscape:window-x="61" inkscape:window-y="22" inkscape:window-maximized="0" inkscape:current-layer="Layer_1"/>
<g transform="translate(0.000000,462.000000) scale(0.100000,-0.100000)" id="g3">
  <path d="M2460.002,4603.999c-81.006-21.001-172.998-68.999-239.004-123.999c-72.002-60-150.996-176.001-182.002-267.002   c-26.992-76.997-25-22.998-20.996-795c2.002-482.998,2.998-498.999,22.002-517.998c20-20,32.998-20,577.998-20   c555,0,558.994,0,577.998,21.001c17.998,20,19.004,46.001,22.002,525l2.998,503.999h-515h-513.994l-6.006,22.998   C2155.999,4066,2218.997,4241,2323,4336C2527.004,4520,2840.998,4470,2980.002,4232.998l35-58.999l76.992,30   c43.008,17.002,78.008,35,78.008,40s-17.002,38.999-37.002,75C3058,4452.998,2908.996,4566,2755.002,4605   C2680.998,4623.999,2533,4622.998,2460.002,4603.999z M2678.996,3696c75-38.999,87.002-142.002,23.008-202.002   c-20-18.999-20-18.999,33.994-202.998c30-102.002,52.002-186.001,50-188.003c-2.002-1.997-80-1.997-172.998-0.996L2443,3105   l52.998,183.999l52.998,183.999l-28.994,34.004c-50,55.996-35,152.998,27.998,186.997C2583,3712.998,2643,3713.999,2678.996,3696z" id="path5" style="fill:#00a185;fill-opacity:1"/>
  <path d="M2570.998,3666c-27.998-16.001-50-52.002-50.996-83.003c0-11.997,13.994-37.998,30-55.996   c17.002-19.004,30-42.002,30-51.001s-20-88.003-45-173.999c-25-86.001-45-160-45-164.004c0-5,57.998-7.998,128.994-7.998h128.008   L2698.996,3296c-26.992,91.997-48.994,172.998-48.994,180c0,6.997,13.994,27.998,30,46.001   c47.002,50.996,37.998,112.998-20,142.998C2625.002,3682.998,2603,3683.999,2570.998,3666z" id="path7" style="fill:#ffffff;fill-opacity:1"/>
  <path d="M1148,3597.998L1145.002,3025l-572.998-2.998L0.002,3020V1510V0h1495h1495v1420v1420h-460   c-507.998,0-502.998-1.001-532.998,62.002C1983.996,2931,1980.998,3016,1978.996,3535c-0.996,330,2.002,607.998,6.006,617.998   c7.002,16.001-17.002,17.002-414.004,17.002h-420.996L1148,3597.998z M1477.004,2620c93.994-57.002,106.992-231.001,41.992-552.998   l-20-97.998l47.002-87.002c102.998-190,280-447.002,366.006-530l33.994-32.002l60,12.002   c32.002,5.996,124.004,12.002,204.004,12.002c128.994,0.996,150-1.006,192.002-21.006   c115.996-52.998,116.992-190.996,1.992-292.002C2352.004,985,2283,965,2218,975c-67.998,10.996-177.002,67.998-255.996,134.004   L1890.002,1170l-141.006-35c-163.994-42.002-360.996-105-511.992-165l-106.006-42.002L1090.002,845   C988.996,640,870.998,470.996,792.004,417.002c-43.008-30-104.004-44.004-146.006-32.998c-37.998,8.994-97.002,65-117.002,110.996   c-68.994,152.002,69.004,320,405,490.996l95,49.004l57.002,135c77.998,184.004,172.998,454.004,225,634.004   c37.998,133.994,41.006,152.998,29.004,180c-41.006,98.994-101.006,290.996-111.006,354.995   c-16.992,113.999,4.004,203.999,63.008,258.003C1340.998,2642.998,1423,2652.998,1477.004,2620z" id="path9" style="fill:#00a185;fill-opacity:1"/>
  <path d="M1377.004,1562.002c-37.002-114.004-90-262.002-116.006-330C1223,1137.998,1215.002,1110,1228,1115   c77.002,30,329.004,112.002,422.002,137.002c62.998,15.996,117.998,32.002,122.002,35c3.994,2.002-18.008,37.002-50,77.002   c-78.008,96.992-158.008,212.998-221.006,318.994C1472.004,1730.996,1448,1770,1447.004,1770   C1445.998,1770,1415.002,1675.996,1377.004,1562.002z" id="path11" style="fill:#00a185;fill-opacity:1"/>
  <path d="M2100.002,1200.996l-24.004-6.992l31.006-22.002c48.994-35,115-62.002,150.996-62.002c25,0,42.002,7.998,62.998,30.996   c54.004,58.008,36.006,69.004-105.996,68.008C2165.999,1207.998,2113.997,1205,2100.002,1200.996z" id="path13" style="fill:#00a185;fill-opacity:1"/>
  <path d="M865.002,790c-117.002-67.998-215-165.996-215-215c0-22.002,27.998-55,47.002-55c16.992,0,100,94.004,145.996,167.002   c42.998,65,80.996,132.998,75,132.998C915.998,820,893,805.996,865.002,790z" id="path15" style="fill:#00a185;fill-opacity:1"/>
  <path d="M2230.999,4126c-5.996-25-10.996-70-10.996-100V3970h385h385v83.999c0,46.001-2.998,91.001-6.006,100   c-5,13.999-47.998,16.001-373.994,16.001h-367.998L2230.999,4126z" id="path17" style="fill:#00a185;fill-opacity:1"/>
  <path d="M570.002,3595l-385-385H573h387.002v385c0,212.002-1.006,385-2.998,385C955.998,3980,782.004,3807.001,570.002,3595z" id="path19" style="fill:#00a185;fill-opacity:1"/>
<path style="fill:#ffffff;fill-opacity:1" id="path3774" d="M2570.998,3666c-27.998-16.001-50-52.002-50.996-83.003c0-11.997,13.994-37.998,30-55.996   c17.002-19.004,30-42.002,30-51.001s-20-88.003-45-173.999c-25-86.001-45-160-45-164.004c0-5,57.998-7.998,128.994-7.998h128.008   L2698.996,3296c-26.992,91.997-48.994,172.998-48.994,180c0,6.997,13.994,27.998,30,46.001   c47.002,50.996,37.998,112.998-20,142.998C2625.002,3682.998,2603,3683.999,2570.998,3666z"/><path d="M2570.998,3666c-27.998-16.001-50-52.002-50.996-83.003c0-11.997,13.994-37.998,30-55.996   c17.002-19.004,30-42.002,30-51.001s-20-88.003-45-173.999c-25-86.001-45-160-45-164.004c0-5,57.998-7.998,128.994-7.998h128.008   L2698.996,3296c-26.992,91.997-48.994,172.998-48.994,180c0,6.997,13.994,27.998,30,46.001   c47.002,50.996,37.998,112.998-20,142.998C2625.002,3682.998,2603,3683.999,2570.998,3666z" id="path3776" style="fill:#ffffff;fill-opacity:1"/><path style="fill:#ffffff;fill-opacity:1" id="path3778" d="M2570.998,3666c-27.998-16.001-50-52.002-50.996-83.003c0-11.997,13.994-37.998,30-55.996   c17.002-19.004,30-42.002,30-51.001s-20-88.003-45-173.999c-25-86.001-45-160-45-164.004c0-5,57.998-7.998,128.994-7.998h128.008   L2698.996,3296c-26.992,91.997-48.994,172.998-48.994,180c0,6.997,13.994,27.998,30,46.001   c47.002,50.996,37.998,112.998-20,142.998C2625.002,3682.998,2603,3683.999,2570.998,3666z"/><path d="M2570.998,3666c-27.998-16.001-50-52.002-50.996-83.003c0-11.997,13.994-37.998,30-55.996   c17.002-19.004,30-42.002,30-51.001s-20-88.003-45-173.999c-25-86.001-45-160-45-164.004c0-5,57.998-7.998,128.994-7.998h128.008   L2698.996,3296c-26.992,91.997-48.994,172.998-48.994,180c0,6.997,13.994,27.998,30,46.001   c47.002,50.996,37.998,112.998-20,142.998C2625.002,3682.998,2603,3683.999,2570.998,3666z" id="path3780" style="fill:#ffffff;fill-opacity:1"/></g>
<path d="M134.197,212.819c-2.5,6.6,0.6,26.6,4.2,27.3c2.199,0.4,3-5.1,2.6-18.8l-0.3-10.5l-2.7-0.3  C135.796,210.22,134.996,210.72,134.197,212.819z" id="path21" style="fill:#00a185;fill-opacity:1"/>
</svg>
